<mxfile host="app.diagrams.net" agent="Mozilla/5.0 (Windows NT 10.0; Win64; x64) AppleWebKit/537.36 (KHTML, like Gecko) Chrome/136.0.0.0 Safari/537.36 Edg/136.0.0.0" version="27.0.6">
  <diagram name="Page-1" id="SCbTddSw7mQRaZ6K1p3L">
    <mxGraphModel dx="530" dy="1136" grid="1" gridSize="10" guides="1" tooltips="1" connect="1" arrows="1" fold="1" page="1" pageScale="1" pageWidth="850" pageHeight="1100" math="0" shadow="0">
      <root>
        <mxCell id="0" />
        <mxCell id="1" parent="0" />
        <mxCell id="6-fWk7BcFQsQ9sO94gLr-2" value="NoSQL E-Commerce Database Project" style="rounded=0;whiteSpace=wrap;html=1;" vertex="1" parent="1">
          <mxGeometry x="295" y="200" width="165" height="60" as="geometry" />
        </mxCell>
        <mxCell id="6-fWk7BcFQsQ9sO94gLr-16" style="edgeStyle=orthogonalEdgeStyle;rounded=0;orthogonalLoop=1;jettySize=auto;html=1;exitX=0.5;exitY=1;exitDx=0;exitDy=0;entryX=0.5;entryY=0;entryDx=0;entryDy=0;" edge="1" parent="1" source="6-fWk7BcFQsQ9sO94gLr-9" target="6-fWk7BcFQsQ9sO94gLr-2">
          <mxGeometry relative="1" as="geometry" />
        </mxCell>
        <mxCell id="6-fWk7BcFQsQ9sO94gLr-9" value="Comparative Analysis" style="rounded=0;whiteSpace=wrap;html=1;" vertex="1" parent="1">
          <mxGeometry x="327.5" y="100" width="100" height="40" as="geometry" />
        </mxCell>
        <mxCell id="6-fWk7BcFQsQ9sO94gLr-14" style="edgeStyle=orthogonalEdgeStyle;rounded=0;orthogonalLoop=1;jettySize=auto;html=1;exitX=1;exitY=0.5;exitDx=0;exitDy=0;entryX=0;entryY=0.5;entryDx=0;entryDy=0;" edge="1" parent="1" source="6-fWk7BcFQsQ9sO94gLr-10" target="6-fWk7BcFQsQ9sO94gLr-2">
          <mxGeometry relative="1" as="geometry" />
        </mxCell>
        <mxCell id="6-fWk7BcFQsQ9sO94gLr-10" value="MongoDB&lt;div&gt;Implementation&lt;/div&gt;" style="rounded=0;whiteSpace=wrap;html=1;" vertex="1" parent="1">
          <mxGeometry x="110" y="210" width="100" height="40" as="geometry" />
        </mxCell>
        <mxCell id="6-fWk7BcFQsQ9sO94gLr-17" style="edgeStyle=orthogonalEdgeStyle;rounded=0;orthogonalLoop=1;jettySize=auto;html=1;exitX=0.5;exitY=0;exitDx=0;exitDy=0;entryX=0.25;entryY=1;entryDx=0;entryDy=0;" edge="1" parent="1" source="6-fWk7BcFQsQ9sO94gLr-11" target="6-fWk7BcFQsQ9sO94gLr-2">
          <mxGeometry relative="1" as="geometry" />
        </mxCell>
        <mxCell id="6-fWk7BcFQsQ9sO94gLr-11" value="Performance Testing" style="rounded=0;whiteSpace=wrap;html=1;" vertex="1" parent="1">
          <mxGeometry x="227.5" y="320" width="100" height="40" as="geometry" />
        </mxCell>
        <mxCell id="6-fWk7BcFQsQ9sO94gLr-15" style="edgeStyle=orthogonalEdgeStyle;rounded=0;orthogonalLoop=1;jettySize=auto;html=1;exitX=0;exitY=0.5;exitDx=0;exitDy=0;entryX=1;entryY=0.5;entryDx=0;entryDy=0;" edge="1" parent="1" source="6-fWk7BcFQsQ9sO94gLr-12" target="6-fWk7BcFQsQ9sO94gLr-2">
          <mxGeometry relative="1" as="geometry" />
        </mxCell>
        <mxCell id="6-fWk7BcFQsQ9sO94gLr-12" value="Documentation" style="rounded=0;whiteSpace=wrap;html=1;" vertex="1" parent="1">
          <mxGeometry x="550" y="210" width="100" height="40" as="geometry" />
        </mxCell>
        <mxCell id="6-fWk7BcFQsQ9sO94gLr-18" style="edgeStyle=orthogonalEdgeStyle;rounded=0;orthogonalLoop=1;jettySize=auto;html=1;exitX=0.5;exitY=0;exitDx=0;exitDy=0;entryX=0.75;entryY=1;entryDx=0;entryDy=0;" edge="1" parent="1" source="6-fWk7BcFQsQ9sO94gLr-13" target="6-fWk7BcFQsQ9sO94gLr-2">
          <mxGeometry relative="1" as="geometry" />
        </mxCell>
        <mxCell id="6-fWk7BcFQsQ9sO94gLr-13" value="Future Work" style="rounded=0;whiteSpace=wrap;html=1;" vertex="1" parent="1">
          <mxGeometry x="427.5" y="320" width="100" height="40" as="geometry" />
        </mxCell>
      </root>
    </mxGraphModel>
  </diagram>
</mxfile>
